<svg xmlns="http://www.w3.org/2000/svg" xmlns:xlink="http://www.w3.org/1999/xlink" width="500" zoomAndPan="magnify" viewBox="0 0 375 374.999991" height="500" preserveAspectRatio="xMidYMid meet" version="1.0"><defs><g/><clipPath id="id1"><path d="M 194 125.625 L 225 125.625 L 225 187.875 L 194 187.875 Z M 194 125.625 " clip-rule="nonzero"/></clipPath><clipPath id="id2"><path d="M 150 125.625 L 181 125.625 L 181 187.875 L 150 187.875 Z M 150 125.625 " clip-rule="nonzero"/></clipPath><clipPath id="id3"><path d="M 245 210.480469 L 255.113281 210.480469 L 255.113281 229.230469 L 245 229.230469 Z M 245 210.480469 " clip-rule="nonzero"/></clipPath><clipPath id="id4"><path d="M 231.863281 210.480469 L 242 210.480469 L 242 229.230469 L 231.863281 229.230469 Z M 231.863281 210.480469 " clip-rule="nonzero"/></clipPath></defs><rect x="-37.5" width="450" fill="#ffffff" y="-37.499999" height="449.999989" fill-opacity="1"/><rect x="-37.5" width="450" fill="#ffffff" y="-37.499999" height="449.999989" fill-opacity="1"/><rect x="-37.5" width="450" fill="#000000" y="-37.499999" height="449.999989" fill-opacity="1"/><g clip-path="url(#id1)"><path fill="#29acff" d="M 194.015625 125.617188 L 194.015625 138.347656 L 212.296875 156.742188 L 194.015625 175.132812 L 194.015625 187.863281 L 224.953125 156.742188 Z M 194.015625 125.617188 " fill-opacity="1" fill-rule="nonzero"/></g><g clip-path="url(#id2)"><path fill="#29acff" d="M 181 138.347656 L 181 125.617188 L 150.0625 156.742188 L 181 187.863281 L 181 175.132812 L 162.71875 156.742188 Z M 181 138.347656 " fill-opacity="1" fill-rule="nonzero"/></g><path fill="#29acff" d="M 172.398438 156.742188 L 187.507812 141.542969 L 202.617188 156.742188 L 187.507812 171.941406 Z M 172.398438 156.742188 " fill-opacity="1" fill-rule="nonzero"/><g fill="#ffffff" fill-opacity="1"><g transform="translate(52.584797, 227.823587)"><g><path d="M 12.09375 0.359375 C 9.414062 0.359375 7.320312 0.109375 5.8125 -0.390625 C 4.300781 -0.890625 3.210938 -1.707031 2.546875 -2.84375 C 1.890625 -3.976562 1.5625 -5.5625 1.5625 -7.59375 C 1.5625 -9.625 1.890625 -11.207031 2.546875 -12.34375 C 3.203125 -13.488281 4.285156 -14.304688 5.796875 -14.796875 C 7.304688 -15.285156 9.40625 -15.53125 12.09375 -15.53125 C 14.78125 -15.53125 16.878906 -15.285156 18.390625 -14.796875 C 19.898438 -14.304688 20.984375 -13.488281 21.640625 -12.34375 C 22.296875 -11.207031 22.625 -9.625 22.625 -7.59375 C 22.625 -5.5625 22.296875 -3.976562 21.640625 -2.84375 C 20.984375 -1.707031 19.898438 -0.890625 18.390625 -0.390625 C 16.878906 0.109375 14.78125 0.359375 12.09375 0.359375 Z M 12.09375 -3.65625 C 13.9375 -3.65625 15.78125 -3.703125 17.625 -3.796875 L 17.625 -11.40625 C 15.570312 -11.476562 13.726562 -11.515625 12.09375 -11.515625 C 10.457031 -11.515625 8.617188 -11.476562 6.578125 -11.40625 L 6.578125 -3.796875 C 8.410156 -3.703125 10.25 -3.65625 12.09375 -3.65625 Z M 12.09375 -3.65625 "/></g></g></g><g fill="#ffffff" fill-opacity="1"><g transform="translate(79.00373, 227.823587)"><g><path d="M 6.84375 0 L 2.453125 0 L 2.453125 -15.171875 L 10.015625 -15.171875 L 16.953125 -3.09375 L 17.0625 -3.09375 L 17.0625 -15.171875 L 21.46875 -15.171875 L 21.46875 0 L 13.90625 0 L 6.96875 -12.078125 L 6.84375 -12.078125 Z M 6.84375 0 "/></g></g></g><g fill="#ffffff" fill-opacity="1"><g transform="translate(105.154917, 227.823587)"><g><path d="M 11.828125 0 L 7.25 0 L 7.25 -5.09375 L -0.21875 -15.0625 L -0.21875 -15.171875 L 5.265625 -15.171875 L 9.59375 -9.109375 L 9.703125 -9.109375 L 14.015625 -15.171875 L 19.28125 -15.171875 L 19.28125 -15.0625 L 11.828125 -5.046875 Z M 11.828125 0 "/></g></g></g><g fill="#ffffff" fill-opacity="1"><g transform="translate(126.441951, 227.823587)"><g><path d="M 20.03125 0 L 2.453125 0 L 2.453125 -15.171875 L 19.703125 -15.171875 L 19.703125 -11.46875 L 7.03125 -11.46875 L 7.03125 -9.140625 L 16.265625 -9.140625 L 16.265625 -6.03125 L 7.03125 -6.03125 L 7.03125 -3.703125 L 20.03125 -3.703125 Z M 20.03125 0 "/></g></g></g><g fill="#ffffff" fill-opacity="1"><g transform="translate(150.049508, 227.823587)"><g><path d="M 20.34375 -15.0625 L 12.359375 -8.59375 L 20.6875 -0.109375 L 20.6875 0 L 14.640625 0 L 9.015625 -5.890625 L 7.03125 -4.28125 L 7.03125 0 L 2.453125 0 L 2.453125 -15.171875 L 7.03125 -15.171875 L 7.03125 -9.34375 L 14.234375 -15.171875 L 20.34375 -15.171875 Z M 20.34375 -15.0625 "/></g></g></g><g fill="#ffffff" fill-opacity="1"><g transform="translate(173.143867, 227.823587)"><g><path d="M 7.1875 -15.171875 L 13.8125 -15.171875 L 21.109375 -0.109375 L 21.109375 0 L 16.125 0 L 14.75 -2.984375 L 6.1875 -2.984375 L 4.796875 0 L -0.0625 0 L -0.0625 -0.109375 Z M 10.421875 -12.078125 L 7.765625 -6.359375 L 13.1875 -6.359375 L 10.53125 -12.078125 Z M 10.421875 -12.078125 "/></g></g></g><g fill="#ffffff" fill-opacity="1"><g transform="translate(196.439047, 227.823587)"><g/></g></g><g fill="#ffffff" fill-opacity="1"><g transform="translate(205.588048, 227.823587)"><g><path d="M 7.03125 0 L 2.453125 0 L 2.453125 -15.171875 L 9.765625 -15.171875 L 13.703125 -6.734375 L 13.8125 -6.734375 L 17.875 -15.171875 L 25.015625 -15.171875 L 25.015625 0 L 20.4375 0 L 20.4375 -12.078125 L 20.328125 -12.078125 L 16.015625 -3.125 L 11.3125 -3.125 L 7.15625 -12.078125 L 7.03125 -12.078125 Z M 7.03125 0 "/></g></g></g><g fill="#ffffff" fill-opacity="1"><g transform="translate(235.280098, 227.823587)"><g/></g></g><g fill="#ffffff" fill-opacity="1"><g transform="translate(244.429095, 227.823587)"><g/></g></g><g fill="#ffffff" fill-opacity="1"><g transform="translate(253.573069, 227.823587)"><g><path d="M 21.265625 -0.109375 L 21.265625 0 L 15.375 0 L 9.8125 -5.265625 L 7.03125 -5.265625 L 7.03125 0 L 2.453125 0 L 2.453125 -15.171875 L 14.765625 -15.171875 C 16.921875 -15.171875 18.503906 -14.757812 19.515625 -13.9375 C 20.535156 -13.113281 21.046875 -11.875 21.046875 -10.21875 C 21.046875 -8.6875 20.609375 -7.503906 19.734375 -6.671875 C 18.867188 -5.847656 17.507812 -5.382812 15.65625 -5.28125 Z M 16.21875 -11.640625 L 7.03125 -11.640625 L 7.03125 -8.453125 L 16.21875 -8.453125 Z M 16.21875 -11.640625 "/></g></g></g><g fill="#ffffff" fill-opacity="1"><g transform="translate(278.251619, 227.823587)"><g><path d="M 20.34375 -15.0625 L 12.359375 -8.59375 L 20.6875 -0.109375 L 20.6875 0 L 14.640625 0 L 9.015625 -5.890625 L 7.03125 -4.28125 L 7.03125 0 L 2.453125 0 L 2.453125 -15.171875 L 7.03125 -15.171875 L 7.03125 -9.34375 L 14.234375 -15.171875 L 20.34375 -15.171875 Z M 20.34375 -15.0625 "/></g></g></g><g fill="#ffffff" fill-opacity="1"><g transform="translate(301.345976, 227.823587)"><g><path d="M 7.1875 -15.171875 L 13.8125 -15.171875 L 21.109375 -0.109375 L 21.109375 0 L 16.125 0 L 14.75 -2.984375 L 6.1875 -2.984375 L 4.796875 0 L -0.0625 0 L -0.0625 -0.109375 Z M 10.421875 -12.078125 L 7.765625 -6.359375 L 13.1875 -6.359375 L 10.53125 -12.078125 Z M 10.421875 -12.078125 "/></g></g></g><g fill="#ffffff" fill-opacity="1"><g transform="translate(104.887058, 250.198827)"><g><path d="M 4.859375 -5.453125 C 4.816406 -5.816406 4.644531 -6.097656 4.34375 -6.296875 C 4.039062 -6.492188 3.664062 -6.59375 3.21875 -6.59375 C 2.738281 -6.59375 2.351562 -6.476562 2.0625 -6.25 C 1.769531 -6.019531 1.625 -5.734375 1.625 -5.390625 C 1.625 -5.128906 1.703125 -4.914062 1.859375 -4.75 C 2.015625 -4.59375 2.203125 -4.46875 2.421875 -4.375 C 2.640625 -4.289062 2.84375 -4.222656 3.03125 -4.171875 L 3.765625 -3.984375 C 3.953125 -3.929688 4.160156 -3.859375 4.390625 -3.765625 C 4.628906 -3.679688 4.851562 -3.5625 5.0625 -3.40625 C 5.28125 -3.257812 5.457031 -3.066406 5.59375 -2.828125 C 5.738281 -2.597656 5.8125 -2.3125 5.8125 -1.96875 C 5.8125 -1.582031 5.707031 -1.226562 5.5 -0.90625 C 5.300781 -0.59375 5.003906 -0.34375 4.609375 -0.15625 C 4.210938 0.03125 3.738281 0.125 3.1875 0.125 C 2.40625 0.125 1.78125 -0.0546875 1.3125 -0.421875 C 0.851562 -0.796875 0.601562 -1.28125 0.5625 -1.875 L 1.484375 -1.875 C 1.503906 -1.601562 1.59375 -1.375 1.75 -1.1875 C 1.914062 -1.007812 2.125 -0.878906 2.375 -0.796875 C 2.625 -0.710938 2.894531 -0.671875 3.1875 -0.671875 C 3.519531 -0.671875 3.816406 -0.722656 4.078125 -0.828125 C 4.347656 -0.941406 4.5625 -1.097656 4.71875 -1.296875 C 4.875 -1.492188 4.953125 -1.722656 4.953125 -1.984375 C 4.953125 -2.222656 4.882812 -2.421875 4.75 -2.578125 C 4.613281 -2.734375 4.4375 -2.859375 4.21875 -2.953125 C 4 -3.046875 3.765625 -3.128906 3.515625 -3.203125 L 2.609375 -3.453125 C 2.046875 -3.617188 1.597656 -3.851562 1.265625 -4.15625 C 0.929688 -4.457031 0.765625 -4.851562 0.765625 -5.34375 C 0.765625 -5.75 0.875 -6.101562 1.09375 -6.40625 C 1.320312 -6.707031 1.625 -6.941406 2 -7.109375 C 2.375 -7.285156 2.789062 -7.375 3.25 -7.375 C 3.71875 -7.375 4.132812 -7.289062 4.5 -7.125 C 4.863281 -6.957031 5.148438 -6.726562 5.359375 -6.4375 C 5.578125 -6.144531 5.691406 -5.816406 5.703125 -5.453125 Z M 4.859375 -5.453125 "/></g></g></g><g fill="#ffffff" fill-opacity="1"><g transform="translate(113.262522, 250.198827)"><g><path d="M 7.015625 -3.640625 C 7.015625 -2.867188 6.875 -2.203125 6.59375 -1.640625 C 6.320312 -1.085938 5.941406 -0.660156 5.453125 -0.359375 C 4.972656 -0.0546875 4.425781 0.09375 3.8125 0.09375 C 3.1875 0.09375 2.628906 -0.0546875 2.140625 -0.359375 C 1.660156 -0.660156 1.28125 -1.085938 1 -1.640625 C 0.726562 -2.203125 0.59375 -2.867188 0.59375 -3.640625 C 0.59375 -4.398438 0.726562 -5.0625 1 -5.625 C 1.28125 -6.1875 1.660156 -6.617188 2.140625 -6.921875 C 2.628906 -7.222656 3.1875 -7.375 3.8125 -7.375 C 4.425781 -7.375 4.972656 -7.222656 5.453125 -6.921875 C 5.941406 -6.617188 6.320312 -6.1875 6.59375 -5.625 C 6.875 -5.0625 7.015625 -4.398438 7.015625 -3.640625 Z M 6.171875 -3.640625 C 6.171875 -4.265625 6.0625 -4.789062 5.84375 -5.21875 C 5.632812 -5.65625 5.351562 -5.984375 5 -6.203125 C 4.644531 -6.429688 4.25 -6.546875 3.8125 -6.546875 C 3.363281 -6.546875 2.960938 -6.429688 2.609375 -6.203125 C 2.253906 -5.984375 1.972656 -5.65625 1.765625 -5.21875 C 1.554688 -4.789062 1.453125 -4.265625 1.453125 -3.640625 C 1.453125 -3.003906 1.554688 -2.46875 1.765625 -2.03125 C 1.972656 -1.601562 2.253906 -1.273438 2.609375 -1.046875 C 2.960938 -0.828125 3.363281 -0.71875 3.8125 -0.71875 C 4.25 -0.71875 4.644531 -0.828125 5 -1.046875 C 5.351562 -1.273438 5.632812 -1.601562 5.84375 -2.03125 C 6.0625 -2.46875 6.171875 -3.003906 6.171875 -3.640625 Z M 6.171875 -3.640625 "/></g></g></g><g fill="#ffffff" fill-opacity="1"><g transform="translate(122.873319, 250.198827)"><g><path d="M 0.875 0 L 0.875 -7.265625 L 5.234375 -7.265625 L 5.234375 -6.484375 L 1.765625 -6.484375 L 1.765625 -4.03125 L 4.921875 -4.03125 L 4.921875 -3.25 L 1.765625 -3.25 L 1.765625 0 Z M 0.875 0 "/></g></g></g><g fill="#ffffff" fill-opacity="1"><g transform="translate(130.737609, 250.198827)"><g><path d="M 0.484375 -6.484375 L 0.484375 -7.265625 L 5.9375 -7.265625 L 5.9375 -6.484375 L 3.65625 -6.484375 L 3.65625 0 L 2.765625 0 L 2.765625 -6.484375 Z M 0.484375 -6.484375 "/></g></g></g><g fill="#ffffff" fill-opacity="1"><g transform="translate(139.155668, 250.198827)"><g><path d="M 2.203125 0 L 0.21875 -7.265625 L 1.109375 -7.265625 L 2.625 -1.34375 L 2.703125 -1.34375 L 4.25 -7.265625 L 5.234375 -7.265625 L 6.796875 -1.34375 L 6.859375 -1.34375 L 8.375 -7.265625 L 9.28125 -7.265625 L 7.28125 0 L 6.375 0 L 4.765625 -5.796875 L 4.71875 -5.796875 L 3.109375 0 Z M 2.203125 0 "/></g></g></g><g fill="#ffffff" fill-opacity="1"><g transform="translate(150.640766, 250.198827)"><g><path d="M 1.171875 0 L 0.25 0 L 2.921875 -7.265625 L 3.828125 -7.265625 L 6.5 0 L 5.578125 0 L 4.84375 -2.0625 L 1.90625 -2.0625 Z M 2.1875 -2.84375 L 4.578125 -2.84375 L 3.40625 -6.125 L 3.359375 -6.125 Z M 2.1875 -2.84375 "/></g></g></g><g fill="#ffffff" fill-opacity="1"><g transform="translate(159.399607, 250.198827)"><g><path d="M 0.875 0 L 0.875 -7.265625 L 3.34375 -7.265625 C 3.90625 -7.265625 4.367188 -7.164062 4.734375 -6.96875 C 5.097656 -6.78125 5.367188 -6.519531 5.546875 -6.1875 C 5.722656 -5.851562 5.8125 -5.472656 5.8125 -5.046875 C 5.8125 -4.554688 5.695312 -4.132812 5.46875 -3.78125 C 5.25 -3.425781 4.910156 -3.164062 4.453125 -3 L 6.09375 0 L 5.078125 0 L 3.53125 -2.84375 C 3.476562 -2.84375 3.421875 -2.84375 3.359375 -2.84375 L 1.765625 -2.84375 L 1.765625 0 Z M 1.765625 -3.640625 L 3.328125 -3.640625 C 3.910156 -3.640625 4.320312 -3.765625 4.5625 -4.015625 C 4.8125 -4.265625 4.9375 -4.609375 4.9375 -5.046875 C 4.9375 -5.484375 4.8125 -5.832031 4.5625 -6.09375 C 4.3125 -6.351562 3.894531 -6.484375 3.3125 -6.484375 L 1.765625 -6.484375 Z M 1.765625 -3.640625 "/></g></g></g><g fill="#ffffff" fill-opacity="1"><g transform="translate(167.789276, 250.198827)"><g><path d="M 0.875 0 L 0.875 -7.265625 L 5.265625 -7.265625 L 5.265625 -6.484375 L 1.765625 -6.484375 L 1.765625 -4.03125 L 5.046875 -4.03125 L 5.046875 -3.25 L 1.765625 -3.25 L 1.765625 -0.78125 L 5.328125 -0.78125 L 5.328125 0 Z M 0.875 0 "/></g></g></g><g fill="#ffffff" fill-opacity="1"><g transform="translate(175.767158, 250.198827)"><g/></g></g><g fill="#ffffff" fill-opacity="1"><g transform="translate(180.578608, 250.198827)"><g><path d="M 0.875 0 L 0.875 -7.265625 L 3.34375 -7.265625 C 3.90625 -7.265625 4.367188 -7.160156 4.734375 -6.953125 C 5.097656 -6.753906 5.367188 -6.476562 5.546875 -6.125 C 5.722656 -5.78125 5.8125 -5.394531 5.8125 -4.96875 C 5.8125 -4.539062 5.722656 -4.148438 5.546875 -3.796875 C 5.367188 -3.453125 5.097656 -3.175781 4.734375 -2.96875 C 4.378906 -2.757812 3.921875 -2.65625 3.359375 -2.65625 L 1.765625 -2.65625 L 1.765625 0 Z M 1.765625 -3.4375 L 3.328125 -3.4375 C 3.910156 -3.4375 4.320312 -3.582031 4.5625 -3.875 C 4.8125 -4.164062 4.9375 -4.53125 4.9375 -4.96875 C 4.9375 -5.40625 4.8125 -5.765625 4.5625 -6.046875 C 4.320312 -6.335938 3.90625 -6.484375 3.3125 -6.484375 L 1.765625 -6.484375 Z M 1.765625 -3.4375 "/></g></g></g><g fill="#ffffff" fill-opacity="1"><g transform="translate(188.925665, 250.198827)"><g><path d="M 0.875 0 L 0.875 -7.265625 L 3.34375 -7.265625 C 3.90625 -7.265625 4.367188 -7.164062 4.734375 -6.96875 C 5.097656 -6.78125 5.367188 -6.519531 5.546875 -6.1875 C 5.722656 -5.851562 5.8125 -5.472656 5.8125 -5.046875 C 5.8125 -4.554688 5.695312 -4.132812 5.46875 -3.78125 C 5.25 -3.425781 4.910156 -3.164062 4.453125 -3 L 6.09375 0 L 5.078125 0 L 3.53125 -2.84375 C 3.476562 -2.84375 3.421875 -2.84375 3.359375 -2.84375 L 1.765625 -2.84375 L 1.765625 0 Z M 1.765625 -3.640625 L 3.328125 -3.640625 C 3.910156 -3.640625 4.320312 -3.765625 4.5625 -4.015625 C 4.8125 -4.265625 4.9375 -4.609375 4.9375 -5.046875 C 4.9375 -5.484375 4.8125 -5.832031 4.5625 -6.09375 C 4.3125 -6.351562 3.894531 -6.484375 3.3125 -6.484375 L 1.765625 -6.484375 Z M 1.765625 -3.640625 "/></g></g></g><g fill="#ffffff" fill-opacity="1"><g transform="translate(197.315328, 250.198827)"><g><path d="M 7.015625 -3.640625 C 7.015625 -2.867188 6.875 -2.203125 6.59375 -1.640625 C 6.320312 -1.085938 5.941406 -0.660156 5.453125 -0.359375 C 4.972656 -0.0546875 4.425781 0.09375 3.8125 0.09375 C 3.1875 0.09375 2.628906 -0.0546875 2.140625 -0.359375 C 1.660156 -0.660156 1.28125 -1.085938 1 -1.640625 C 0.726562 -2.203125 0.59375 -2.867188 0.59375 -3.640625 C 0.59375 -4.398438 0.726562 -5.0625 1 -5.625 C 1.28125 -6.1875 1.660156 -6.617188 2.140625 -6.921875 C 2.628906 -7.222656 3.1875 -7.375 3.8125 -7.375 C 4.425781 -7.375 4.972656 -7.222656 5.453125 -6.921875 C 5.941406 -6.617188 6.320312 -6.1875 6.59375 -5.625 C 6.875 -5.0625 7.015625 -4.398438 7.015625 -3.640625 Z M 6.171875 -3.640625 C 6.171875 -4.265625 6.0625 -4.789062 5.84375 -5.21875 C 5.632812 -5.65625 5.351562 -5.984375 5 -6.203125 C 4.644531 -6.429688 4.25 -6.546875 3.8125 -6.546875 C 3.363281 -6.546875 2.960938 -6.429688 2.609375 -6.203125 C 2.253906 -5.984375 1.972656 -5.65625 1.765625 -5.21875 C 1.554688 -4.789062 1.453125 -4.265625 1.453125 -3.640625 C 1.453125 -3.003906 1.554688 -2.46875 1.765625 -2.03125 C 1.972656 -1.601562 2.253906 -1.273438 2.609375 -1.046875 C 2.960938 -0.828125 3.363281 -0.71875 3.8125 -0.71875 C 4.25 -0.71875 4.644531 -0.828125 5 -1.046875 C 5.351562 -1.273438 5.632812 -1.601562 5.84375 -2.03125 C 6.0625 -2.46875 6.171875 -3.003906 6.171875 -3.640625 Z M 6.171875 -3.640625 "/></g></g></g><g fill="#ffffff" fill-opacity="1"><g transform="translate(206.926122, 250.198827)"><g><path d="M 5.859375 -5 C 5.703125 -5.476562 5.445312 -5.851562 5.09375 -6.125 C 4.738281 -6.40625 4.300781 -6.546875 3.78125 -6.546875 C 3.34375 -6.546875 2.945312 -6.429688 2.59375 -6.203125 C 2.25 -5.984375 1.972656 -5.65625 1.765625 -5.21875 C 1.554688 -4.789062 1.453125 -4.265625 1.453125 -3.640625 C 1.453125 -3.003906 1.554688 -2.46875 1.765625 -2.03125 C 1.972656 -1.601562 2.253906 -1.273438 2.609375 -1.046875 C 2.972656 -0.828125 3.378906 -0.71875 3.828125 -0.71875 C 4.242188 -0.71875 4.609375 -0.804688 4.921875 -0.984375 C 5.234375 -1.160156 5.476562 -1.40625 5.65625 -1.71875 C 5.84375 -2.039062 5.941406 -2.421875 5.953125 -2.859375 L 4.03125 -2.859375 L 4.03125 -3.640625 L 6.796875 -3.640625 L 6.796875 -2.859375 C 6.796875 -2.253906 6.671875 -1.726562 6.421875 -1.28125 C 6.171875 -0.84375 5.820312 -0.503906 5.375 -0.265625 C 4.925781 -0.0234375 4.410156 0.09375 3.828125 0.09375 C 3.191406 0.09375 2.628906 -0.0546875 2.140625 -0.359375 C 1.648438 -0.660156 1.269531 -1.085938 1 -1.640625 C 0.726562 -2.203125 0.59375 -2.867188 0.59375 -3.640625 C 0.59375 -4.398438 0.726562 -5.0625 1 -5.625 C 1.269531 -6.1875 1.644531 -6.617188 2.125 -6.921875 C 2.601562 -7.222656 3.15625 -7.375 3.78125 -7.375 C 4.289062 -7.375 4.753906 -7.269531 5.171875 -7.0625 C 5.585938 -6.863281 5.929688 -6.585938 6.203125 -6.234375 C 6.484375 -5.878906 6.671875 -5.46875 6.765625 -5 Z M 5.859375 -5 "/></g></g></g><g fill="#ffffff" fill-opacity="1"><g transform="translate(216.352322, 250.198827)"><g><path d="M 0.875 0 L 0.875 -7.265625 L 3.34375 -7.265625 C 3.90625 -7.265625 4.367188 -7.164062 4.734375 -6.96875 C 5.097656 -6.78125 5.367188 -6.519531 5.546875 -6.1875 C 5.722656 -5.851562 5.8125 -5.472656 5.8125 -5.046875 C 5.8125 -4.554688 5.695312 -4.132812 5.46875 -3.78125 C 5.25 -3.425781 4.910156 -3.164062 4.453125 -3 L 6.09375 0 L 5.078125 0 L 3.53125 -2.84375 C 3.476562 -2.84375 3.421875 -2.84375 3.359375 -2.84375 L 1.765625 -2.84375 L 1.765625 0 Z M 1.765625 -3.640625 L 3.328125 -3.640625 C 3.910156 -3.640625 4.320312 -3.765625 4.5625 -4.015625 C 4.8125 -4.265625 4.9375 -4.609375 4.9375 -5.046875 C 4.9375 -5.484375 4.8125 -5.832031 4.5625 -6.09375 C 4.3125 -6.351562 3.894531 -6.484375 3.3125 -6.484375 L 1.765625 -6.484375 Z M 1.765625 -3.640625 "/></g></g></g><g fill="#ffffff" fill-opacity="1"><g transform="translate(224.741985, 250.198827)"><g><path d="M 1.171875 0 L 0.25 0 L 2.921875 -7.265625 L 3.828125 -7.265625 L 6.5 0 L 5.578125 0 L 4.84375 -2.0625 L 1.90625 -2.0625 Z M 2.1875 -2.84375 L 4.578125 -2.84375 L 3.40625 -6.125 L 3.359375 -6.125 Z M 2.1875 -2.84375 "/></g></g></g><g fill="#ffffff" fill-opacity="1"><g transform="translate(233.500823, 250.198827)"><g><path d="M 0.875 -7.265625 L 1.9375 -7.265625 L 4.40625 -1.234375 L 4.484375 -1.234375 L 6.953125 -7.265625 L 8.015625 -7.265625 L 8.015625 0 L 7.1875 0 L 7.1875 -5.53125 L 7.109375 -5.53125 L 4.84375 0 L 4.046875 0 L 1.78125 -5.53125 L 1.703125 -5.53125 L 1.703125 0 L 0.875 0 Z M 0.875 -7.265625 "/></g></g></g><g fill="#ffffff" fill-opacity="1"><g transform="translate(244.616744, 250.198827)"><g><path d="M 0.875 -7.265625 L 1.9375 -7.265625 L 4.40625 -1.234375 L 4.484375 -1.234375 L 6.953125 -7.265625 L 8.015625 -7.265625 L 8.015625 0 L 7.1875 0 L 7.1875 -5.53125 L 7.109375 -5.53125 L 4.84375 0 L 4.046875 0 L 1.78125 -5.53125 L 1.703125 -5.53125 L 1.703125 0 L 0.875 0 Z M 0.875 -7.265625 "/></g></g></g><g fill="#ffffff" fill-opacity="1"><g transform="translate(255.732664, 250.198827)"><g><path d="M 0.875 0 L 0.875 -7.265625 L 5.265625 -7.265625 L 5.265625 -6.484375 L 1.765625 -6.484375 L 1.765625 -4.03125 L 5.046875 -4.03125 L 5.046875 -3.25 L 1.765625 -3.25 L 1.765625 -0.78125 L 5.328125 -0.78125 L 5.328125 0 Z M 0.875 0 "/></g></g></g><g fill="#ffffff" fill-opacity="1"><g transform="translate(263.710546, 250.198827)"><g><path d="M 0.875 0 L 0.875 -7.265625 L 3.34375 -7.265625 C 3.90625 -7.265625 4.367188 -7.164062 4.734375 -6.96875 C 5.097656 -6.78125 5.367188 -6.519531 5.546875 -6.1875 C 5.722656 -5.851562 5.8125 -5.472656 5.8125 -5.046875 C 5.8125 -4.554688 5.695312 -4.132812 5.46875 -3.78125 C 5.25 -3.425781 4.910156 -3.164062 4.453125 -3 L 6.09375 0 L 5.078125 0 L 3.53125 -2.84375 C 3.476562 -2.84375 3.421875 -2.84375 3.359375 -2.84375 L 1.765625 -2.84375 L 1.765625 0 Z M 1.765625 -3.640625 L 3.328125 -3.640625 C 3.910156 -3.640625 4.320312 -3.765625 4.5625 -4.015625 C 4.8125 -4.265625 4.9375 -4.609375 4.9375 -5.046875 C 4.9375 -5.484375 4.8125 -5.832031 4.5625 -6.09375 C 4.3125 -6.351562 3.894531 -6.484375 3.3125 -6.484375 L 1.765625 -6.484375 Z M 1.765625 -3.640625 "/></g></g></g><g clip-path="url(#id3)"><path fill="#29acff" d="M 245.507812 210.476562 L 245.507812 214.3125 L 251.175781 219.851562 L 245.507812 225.390625 L 245.507812 229.226562 L 255.101562 219.851562 Z M 245.507812 210.476562 " fill-opacity="1" fill-rule="nonzero"/></g><g clip-path="url(#id4)"><path fill="#29acff" d="M 241.472656 214.3125 L 241.472656 210.476562 L 231.878906 219.851562 L 241.472656 229.226562 L 241.472656 225.390625 L 235.800781 219.851562 Z M 241.472656 214.3125 " fill-opacity="1" fill-rule="nonzero"/></g><path fill="#29acff" d="M 238.804688 219.851562 L 243.488281 215.273438 L 248.175781 219.851562 L 243.488281 224.429688 Z M 238.804688 219.851562 " fill-opacity="1" fill-rule="nonzero"/></svg>