<svg xmlns="http://www.w3.org/2000/svg" xmlns:xlink="http://www.w3.org/1999/xlink" width="400" zoomAndPan="magnify" viewBox="0 0 300 30.000001" height="40" preserveAspectRatio="xMidYMid meet" version="1.0"><defs><g/><clipPath id="id1"><path d="M 210 4.503906 L 219.671875 4.503906 L 219.671875 24.101562 L 210 24.101562 Z M 210 4.503906 " clip-rule="nonzero"/></clipPath><clipPath id="id2"><path d="M 196.445312 4.503906 L 207 4.503906 L 207 24.101562 L 196.445312 24.101562 Z M 196.445312 4.503906 " clip-rule="nonzero"/></clipPath></defs><g fill="#ffffff" fill-opacity="1"><g transform="translate(10.180168, 22.184584)"><g><path d="M 12.53125 0.375 C 9.757812 0.375 7.585938 0.117188 6.015625 -0.390625 C 4.453125 -0.910156 3.328125 -1.757812 2.640625 -2.9375 C 1.960938 -4.125 1.625 -5.765625 1.625 -7.859375 C 1.625 -9.972656 1.960938 -11.617188 2.640625 -12.796875 C 3.316406 -13.972656 4.4375 -14.816406 6 -15.328125 C 7.5625 -15.835938 9.738281 -16.09375 12.53125 -16.09375 C 15.320312 -16.09375 17.5 -15.835938 19.0625 -15.328125 C 20.625 -14.816406 21.742188 -13.972656 22.421875 -12.796875 C 23.109375 -11.617188 23.453125 -9.972656 23.453125 -7.859375 C 23.453125 -5.765625 23.109375 -4.125 22.421875 -2.9375 C 21.742188 -1.757812 20.625 -0.910156 19.0625 -0.390625 C 17.5 0.117188 15.320312 0.375 12.53125 0.375 Z M 12.53125 -3.796875 C 14.445312 -3.796875 16.359375 -3.84375 18.265625 -3.9375 L 18.265625 -11.8125 C 16.140625 -11.894531 14.226562 -11.9375 12.53125 -11.9375 C 10.832031 -11.9375 8.929688 -11.894531 6.828125 -11.8125 L 6.828125 -3.9375 C 8.722656 -3.84375 10.625 -3.796875 12.53125 -3.796875 Z M 12.53125 -3.796875 "/></g></g></g><g fill="#ffffff" fill-opacity="1"><g transform="translate(37.55979, 22.184584)"><g><path d="M 7.09375 0 L 2.546875 0 L 2.546875 -15.71875 L 10.390625 -15.71875 L 17.578125 -3.21875 L 17.6875 -3.21875 L 17.6875 -15.71875 L 22.25 -15.71875 L 22.25 0 L 14.40625 0 L 7.21875 -12.515625 L 7.09375 -12.515625 Z M 7.09375 0 "/></g></g></g><g fill="#ffffff" fill-opacity="1"><g transform="translate(64.661929, 22.184584)"><g><path d="M 12.25 0 L 7.515625 0 L 7.515625 -5.265625 L -0.234375 -15.609375 L -0.234375 -15.71875 L 5.453125 -15.71875 L 9.9375 -9.4375 L 10.0625 -9.4375 L 14.515625 -15.71875 L 19.984375 -15.71875 L 19.984375 -15.609375 L 12.25 -5.21875 Z M 12.25 0 "/></g></g></g><g fill="#ffffff" fill-opacity="1"><g transform="translate(86.72309, 22.184584)"><g><path d="M 20.765625 0 L 2.546875 0 L 2.546875 -15.71875 L 20.421875 -15.71875 L 20.421875 -11.890625 L 7.28125 -11.890625 L 7.28125 -9.484375 L 16.859375 -9.484375 L 16.859375 -6.25 L 7.28125 -6.25 L 7.28125 -3.84375 L 20.765625 -3.84375 Z M 20.765625 0 "/></g></g></g><g fill="#ffffff" fill-opacity="1"><g transform="translate(111.189122, 22.184584)"><g><path d="M 21.09375 -15.609375 L 12.8125 -8.90625 L 21.4375 -0.109375 L 21.4375 0 L 15.171875 0 L 9.34375 -6.109375 L 7.28125 -4.4375 L 7.28125 0 L 2.546875 0 L 2.546875 -15.71875 L 7.28125 -15.71875 L 7.28125 -9.6875 L 14.75 -15.71875 L 21.09375 -15.71875 Z M 21.09375 -15.609375 "/></g></g></g><g fill="#ffffff" fill-opacity="1"><g transform="translate(135.123313, 22.184584)"><g><path d="M 7.453125 -15.71875 L 14.3125 -15.71875 L 21.875 -0.109375 L 21.875 0 L 16.71875 0 L 15.28125 -3.09375 L 6.40625 -3.09375 L 4.96875 0 L -0.0625 0 L -0.0625 -0.109375 Z M 10.796875 -12.515625 L 8.046875 -6.59375 L 13.671875 -6.59375 L 10.921875 -12.515625 Z M 10.796875 -12.515625 "/></g></g></g><g fill="#ffffff" fill-opacity="1"><g transform="translate(159.265614, 22.184584)"><g/></g></g><g fill="#ffffff" fill-opacity="1"><g transform="translate(168.747458, 22.184584)"><g><path d="M 7.28125 0 L 2.546875 0 L 2.546875 -15.71875 L 10.125 -15.71875 L 14.203125 -6.984375 L 14.3125 -6.984375 L 18.515625 -15.71875 L 25.921875 -15.71875 L 25.921875 0 L 21.1875 0 L 21.1875 -12.515625 L 21.0625 -12.515625 L 16.609375 -3.234375 L 11.71875 -3.234375 L 7.421875 -12.515625 L 7.28125 -12.515625 Z M 7.28125 0 "/></g></g></g><g fill="#ffffff" fill-opacity="1"><g transform="translate(199.524929, 22.184584)"><g/></g></g><g fill="#ffffff" fill-opacity="1"><g transform="translate(209.006769, 22.184584)"><g/></g></g><g fill="#ffffff" fill-opacity="1"><g transform="translate(218.486622, 22.184584)"><g><path d="M 22.03125 -0.109375 L 22.03125 0 L 15.9375 0 L 10.171875 -5.453125 L 7.28125 -5.453125 L 7.28125 0 L 2.546875 0 L 2.546875 -15.71875 L 15.3125 -15.71875 C 17.539062 -15.71875 19.179688 -15.289062 20.234375 -14.4375 C 21.285156 -13.582031 21.8125 -12.300781 21.8125 -10.59375 C 21.8125 -9 21.359375 -7.773438 20.453125 -6.921875 C 19.546875 -6.066406 18.140625 -5.585938 16.234375 -5.484375 Z M 16.8125 -12.078125 L 7.28125 -12.078125 L 7.28125 -8.765625 L 16.8125 -8.765625 Z M 16.8125 -12.078125 "/></g></g></g><g fill="#ffffff" fill-opacity="1"><g transform="translate(244.062592, 22.184584)"><g><path d="M 21.09375 -15.609375 L 12.8125 -8.90625 L 21.4375 -0.109375 L 21.4375 0 L 15.171875 0 L 9.34375 -6.109375 L 7.28125 -4.4375 L 7.28125 0 L 2.546875 0 L 2.546875 -15.71875 L 7.28125 -15.71875 L 7.28125 -9.6875 L 14.75 -15.71875 L 21.09375 -15.71875 Z M 21.09375 -15.609375 "/></g></g></g><g fill="#ffffff" fill-opacity="1"><g transform="translate(267.996781, 22.184584)"><g><path d="M 7.453125 -15.71875 L 14.3125 -15.71875 L 21.875 -0.109375 L 21.875 0 L 16.71875 0 L 15.28125 -3.09375 L 6.40625 -3.09375 L 4.96875 0 L -0.0625 0 L -0.0625 -0.109375 Z M 10.796875 -12.515625 L 8.046875 -6.59375 L 13.671875 -6.59375 L 10.921875 -12.515625 Z M 10.796875 -12.515625 "/></g></g></g><g clip-path="url(#id1)"><path fill="#29acff" d="M 210.074219 4.503906 L 210.074219 8.511719 L 215.734375 14.300781 L 210.074219 20.089844 L 210.074219 24.097656 L 219.652344 14.300781 Z M 210.074219 4.503906 " fill-opacity="1" fill-rule="nonzero"/></g><g clip-path="url(#id2)"><path fill="#29acff" d="M 206.046875 8.511719 L 206.046875 4.503906 L 196.46875 14.300781 L 206.046875 24.097656 L 206.046875 20.089844 L 200.386719 14.300781 Z M 206.046875 8.511719 " fill-opacity="1" fill-rule="nonzero"/></g><path fill="#29acff" d="M 203.382812 14.300781 L 208.058594 9.515625 L 212.738281 14.300781 L 208.058594 19.085938 Z M 203.382812 14.300781 " fill-opacity="1" fill-rule="nonzero"/></svg>