<svg xmlns="http://www.w3.org/2000/svg" xmlns:xlink="http://www.w3.org/1999/xlink" width="800" zoomAndPan="magnify" viewBox="0 0 600 54" height="72" preserveAspectRatio="xMidYMid meet" version="1.0"><defs><g/><clipPath id="id1"><path d="M 425 9.398438 L 444.859375 9.398438 L 444.859375 47.691406 L 425 47.691406 Z M 425 9.398438 " clip-rule="nonzero"/></clipPath><clipPath id="id2"><path d="M 397.734375 9.398438 L 418 9.398438 L 418 47.691406 L 397.734375 47.691406 Z M 397.734375 9.398438 " clip-rule="nonzero"/></clipPath></defs><g fill="#ffffff" fill-opacity="1"><g transform="translate(9.068815, 45.260378)"><g><path d="M 26.078125 0.765625 C 20.304688 0.765625 15.789062 0.226562 12.53125 -0.84375 C 9.28125 -1.914062 6.941406 -3.675781 5.515625 -6.125 C 4.085938 -8.582031 3.375 -11.992188 3.375 -16.359375 C 3.375 -20.753906 4.078125 -24.175781 5.484375 -26.625 C 6.898438 -29.082031 9.234375 -30.84375 12.484375 -31.90625 C 15.742188 -32.96875 20.273438 -33.5 26.078125 -33.5 C 31.890625 -33.5 36.421875 -32.96875 39.671875 -31.90625 C 42.929688 -30.84375 45.265625 -29.082031 46.671875 -26.625 C 48.085938 -24.175781 48.796875 -20.753906 48.796875 -16.359375 C 48.796875 -11.992188 48.085938 -8.582031 46.671875 -6.125 C 45.265625 -3.675781 42.929688 -1.914062 39.671875 -0.84375 C 36.421875 0.226562 31.890625 0.765625 26.078125 0.765625 Z M 26.078125 -7.890625 C 30.054688 -7.890625 34.035156 -7.988281 38.015625 -8.1875 L 38.015625 -24.59375 C 33.585938 -24.75 29.609375 -24.828125 26.078125 -24.828125 C 22.554688 -24.828125 18.597656 -24.75 14.203125 -24.59375 L 14.203125 -8.1875 C 18.140625 -7.988281 22.097656 -7.890625 26.078125 -7.890625 Z M 26.078125 -7.890625 "/></g></g></g><g fill="#ffffff" fill-opacity="1"><g transform="translate(66.039825, 45.260378)"><g><path d="M 14.78125 0 L 5.296875 0 L 5.296875 -32.71875 L 21.609375 -32.71875 L 36.578125 -6.6875 L 36.8125 -6.6875 L 36.8125 -32.71875 L 46.296875 -32.71875 L 46.296875 0 L 29.984375 0 L 15.015625 -26.03125 L 14.78125 -26.03125 Z M 14.78125 0 "/></g></g></g><g fill="#ffffff" fill-opacity="1"><g transform="translate(122.433429, 45.260378)"><g><path d="M 25.5 0 L 15.640625 0 L 15.640625 -10.96875 L -0.484375 -32.484375 L -0.484375 -32.71875 L 11.359375 -32.71875 L 20.6875 -19.640625 L 20.9375 -19.640625 L 30.21875 -32.71875 L 41.578125 -32.71875 L 41.578125 -32.484375 L 25.5 -10.875 Z M 25.5 0 "/></g></g></g><g fill="#ffffff" fill-opacity="1"><g transform="translate(168.337558, 45.260378)"><g><path d="M 43.21875 0 L 5.296875 0 L 5.296875 -32.71875 L 42.5 -32.71875 L 42.5 -24.734375 L 15.15625 -24.734375 L 15.15625 -19.734375 L 35.078125 -19.734375 L 35.078125 -13 L 15.15625 -13 L 15.15625 -7.984375 L 43.21875 -7.984375 Z M 43.21875 0 "/></g></g></g><g fill="#ffffff" fill-opacity="1"><g transform="translate(219.245839, 45.260378)"><g><path d="M 43.890625 -32.484375 L 26.65625 -18.53125 L 44.609375 -0.234375 L 44.609375 0 L 31.5625 0 L 19.4375 -12.703125 L 15.15625 -9.234375 L 15.15625 0 L 5.296875 0 L 5.296875 -32.71875 L 15.15625 -32.71875 L 15.15625 -20.171875 L 30.703125 -32.71875 L 43.890625 -32.71875 Z M 43.890625 -32.484375 "/></g></g></g><g fill="#ffffff" fill-opacity="1"><g transform="translate(269.047439, 45.260378)"><g><path d="M 15.5 -32.71875 L 29.796875 -32.71875 L 45.53125 -0.234375 L 45.53125 0 L 34.796875 0 L 31.8125 -6.453125 L 13.328125 -6.453125 L 10.34375 0 L -0.140625 0 L -0.140625 -0.234375 Z M 22.46875 -26.03125 L 16.75 -13.71875 L 28.4375 -13.71875 L 22.71875 -26.03125 Z M 22.46875 -26.03125 "/></g></g></g><g fill="#ffffff" fill-opacity="1"><g transform="translate(319.282075, 45.260378)"><g/></g></g><g fill="#ffffff" fill-opacity="1"><g transform="translate(339.010633, 45.260378)"><g><path d="M 15.15625 0 L 5.296875 0 L 5.296875 -32.71875 L 21.078125 -32.71875 L 29.546875 -14.53125 L 29.796875 -14.53125 L 38.546875 -32.71875 L 53.953125 -32.71875 L 53.953125 0 L 44.078125 0 L 44.078125 -26.03125 L 43.84375 -26.03125 L 34.546875 -6.734375 L 24.40625 -6.734375 L 15.453125 -26.03125 L 15.15625 -26.03125 Z M 15.15625 0 "/></g></g></g><g fill="#ffffff" fill-opacity="1"><g transform="translate(403.046362, 45.260378)"><g/></g></g><g fill="#ffffff" fill-opacity="1"><g transform="translate(422.774929, 45.260378)"><g/></g></g><g fill="#ffffff" fill-opacity="1"><g transform="translate(442.49934, 45.260378)"><g><path d="M 45.859375 -0.234375 L 45.859375 0 L 33.15625 0 L 21.171875 -11.359375 L 15.15625 -11.359375 L 15.15625 0 L 5.296875 0 L 5.296875 -32.71875 L 31.859375 -32.71875 C 36.515625 -32.71875 39.929688 -31.828125 42.109375 -30.046875 C 44.285156 -28.273438 45.375 -25.609375 45.375 -22.046875 C 45.375 -18.734375 44.4375 -16.1875 42.5625 -14.40625 C 40.6875 -12.632812 37.757812 -11.632812 33.78125 -11.40625 Z M 34.984375 -25.125 L 15.15625 -25.125 L 15.15625 -18.234375 L 34.984375 -18.234375 Z M 34.984375 -25.125 "/></g></g></g><g fill="#ffffff" fill-opacity="1"><g transform="translate(495.717229, 45.260378)"><g><path d="M 43.890625 -32.484375 L 26.65625 -18.53125 L 44.609375 -0.234375 L 44.609375 0 L 31.5625 0 L 19.4375 -12.703125 L 15.15625 -9.234375 L 15.15625 0 L 5.296875 0 L 5.296875 -32.71875 L 15.15625 -32.71875 L 15.15625 -20.171875 L 30.703125 -32.71875 L 43.890625 -32.71875 Z M 43.890625 -32.484375 "/></g></g></g><g fill="#ffffff" fill-opacity="1"><g transform="translate(545.518829, 45.260378)"><g><path d="M 15.5 -32.71875 L 29.796875 -32.71875 L 45.53125 -0.234375 L 45.53125 0 L 34.796875 0 L 31.8125 -6.453125 L 13.328125 -6.453125 L 10.34375 0 L -0.140625 0 L -0.140625 -0.234375 Z M 22.46875 -26.03125 L 16.75 -13.71875 L 28.4375 -13.71875 L 22.71875 -26.03125 Z M 22.46875 -26.03125 "/></g></g></g><g clip-path="url(#id1)"><path fill="#29acff" d="M 425.390625 9.394531 L 425.390625 17.226562 L 436.875 28.539062 L 425.390625 39.851562 L 425.390625 47.683594 L 444.824219 28.539062 Z M 425.390625 9.394531 " fill-opacity="1" fill-rule="nonzero"/></g><g clip-path="url(#id2)"><path fill="#29acff" d="M 417.210938 17.226562 L 417.210938 9.394531 L 397.777344 28.539062 L 417.210938 47.683594 L 417.210938 39.851562 L 405.726562 28.539062 Z M 417.210938 17.226562 " fill-opacity="1" fill-rule="nonzero"/></g><path fill="#29acff" d="M 411.808594 28.539062 L 421.300781 19.1875 L 430.792969 28.539062 L 421.300781 37.890625 Z M 411.808594 28.539062 " fill-opacity="1" fill-rule="nonzero"/></svg>