<svg xmlns="http://www.w3.org/2000/svg" xmlns:xlink="http://www.w3.org/1999/xlink" width="500" zoomAndPan="magnify" viewBox="0 0 375 374.999991" height="500" preserveAspectRatio="xMidYMid meet" version="1.0"><defs><clipPath id="id1"><path d="M 142 146 L 336 146 L 336 176.167969 L 142 176.167969 Z M 142 146 " clip-rule="nonzero"/></clipPath></defs><path fill="#ff914d" d="M 47.027344 148.90625 C 50.371094 148.292969 54.628906 147.375 59.339844 146.300781 L 39.578125 146.457031 L 73.785156 142.933594 L 76.671875 142.320312 L 57.210938 142.472656 L 94.003906 138.339844 L 96.132812 137.878906 L 76.824219 138.03125 L 109.664062 135.121094 C 110.421875 134.96875 111.03125 134.816406 111.789062 134.664062 L 93.242188 134.355469 L 119.542969 132.363281 L 109.511719 131.445312 L 140.980469 130.066406 C 181.722656 125.167969 225.507812 126.851562 254.847656 149.976562 C 250.742188 147.988281 246.789062 145.996094 242.6875 144.464844 L 208.632812 144.769531 L 238.277344 142.78125 L 201.488281 141.554688 L 228.242188 139.5625 L 187.804688 138.796875 L 215.777344 136.652344 C 215.320312 136.5 214.863281 136.5 214.410156 136.347656 L 177.769531 136.039062 L 200.421875 134.355469 C 177.769531 132.210938 154.664062 134.507812 131.402344 139.105469 C 134.289062 146.914062 141.738281 152.273438 154.207031 155.03125 C 118.023438 157.175781 87.3125 144.464844 47.027344 148.90625 Z M 47.027344 148.90625 " fill-opacity="1" fill-rule="evenodd"/><g clip-path="url(#id1)"><path fill="#ff914d" d="M 288.140625 162.078125 L 273.089844 164.679688 L 293.3125 164.527344 C 294.527344 165.292969 295.589844 166.058594 296.65625 166.824219 L 266.097656 170.652344 L 300 170.347656 C 300.761719 171.265625 301.214844 172.183594 301.824219 173.257812 C 301.0625 167.898438 300.304688 166.824219 298.023438 164.222656 C 310.488281 166.058594 322.957031 170.195312 335.421875 176.167969 C 299.390625 138.03125 201.941406 161.464844 142.957031 146.300781 C 145.386719 149.976562 152.382812 153.195312 162.261719 155.949219 L 142.042969 157.328125 L 167.738281 157.328125 C 169.410156 157.789062 171.234375 158.09375 173.058594 158.554688 L 157.246094 160.390625 L 183.242188 160.546875 C 184.003906 160.699219 184.914062 160.851562 185.675781 161.003906 L 171.234375 163.148438 L 197.078125 162.84375 C 197.988281 162.996094 199.054688 163.148438 200.117188 163.300781 L 184.914062 165.140625 L 211.671875 164.832031 C 225.507812 166.671875 240.101562 168.203125 254.085938 169.429688 C 258.648438 163.609375 267.164062 159.625 276.890625 159.625 C 280.996094 160.238281 284.796875 161.003906 288.140625 162.078125 Z M 288.140625 162.078125 " fill-opacity="1" fill-rule="evenodd"/></g><path fill="#ff914d" d="M 80.777344 159.015625 L 49.003906 161.15625 L 77.433594 161.617188 C 74.238281 164.527344 72.261719 168.203125 71.808594 172.183594 C 76.0625 164.988281 86.25 159.933594 98.109375 159.933594 C 109.964844 159.933594 120.152344 164.988281 124.410156 172.183594 C 123.191406 162.078125 111.941406 154.265625 98.109375 154.265625 C 95.371094 154.265625 92.636719 154.570312 90.050781 155.183594 L 63.140625 157.023438 L 82.296875 158.09375 C 81.6875 158.402344 81.234375 158.707031 80.777344 159.015625 Z M 80.777344 159.015625 " fill-opacity="1" fill-rule="evenodd"/><path stroke-linecap="butt" transform="matrix(0.746465, -0.0727284, 0.0727284, 0.746465, 56.168355, 195.71193)" fill="none" stroke-linejoin="miter" d="M 0.565293 49.99746 L 5.08651 49.998392 C 5.421303 49.999613 5.651887 49.781361 5.654118 49.436201 L 5.652731 38.708424 L 26.998415 38.70541 L 30.958091 50.001999 L 37.159466 49.999174 L 33.204469 38.708274 L 33.769874 38.705798 C 37.108444 38.706631 39.532342 36.279197 39.533174 32.940627 L 39.532347 27.524396 C 39.53318 24.185826 37.105746 21.761927 33.767176 21.761095 L 0.563916 21.76008 C 0.218756 21.757848 -0.00196608 21.982294 0.00098657 22.32796 L -0.00258747 49.43453 C 0.000365181 49.780196 0.219627 50.000412 0.565293 49.99746 Z M 5.654401 33.051718 L 5.654052 27.415747 L 32.761127 27.414138 C 33.384059 27.412034 33.895289 27.911881 33.891199 28.544675 L 33.892014 31.920037 C 33.894118 32.542968 33.383903 33.053189 32.760972 33.055292 Z M 5.654401 33.051718 " stroke="#4dbbff" stroke-width="2.118202" stroke-opacity="1" stroke-miterlimit="4"/><path stroke-linecap="butt" transform="matrix(0.748428, -0.048528, 0.048528, 0.748428, 94.93538, 192.017008)" fill="none" stroke-linejoin="miter" d="M 0.565758 49.998913 L 5.085595 49.999699 C 5.419578 50.000478 5.653035 49.780748 5.654487 49.43637 L 5.656102 38.705655 L 33.892429 38.70453 L 33.896011 49.435583 C 33.894559 49.779961 34.1153 49.997825 34.459678 49.999277 L 38.96912 49.99939 C 39.313498 50.000842 39.531362 49.780101 39.532814 49.435724 L 39.533842 27.525292 C 39.531231 24.18479 37.104766 21.762295 33.769798 21.760046 L 5.763169 21.760406 C 2.428201 21.758157 0.000171052 24.189482 -0.00207775 27.52445 L 0.00209172 49.435219 C 0.000639401 49.779596 0.22138 49.997461 0.565758 49.998913 Z M 5.652057 33.052922 L 5.652169 28.54348 C 5.651367 27.911896 6.148311 27.411752 6.785092 27.411287 L 32.761163 27.414967 C 33.382352 27.41349 33.892891 27.911109 33.893693 28.542693 L 33.893581 33.052135 Z M 5.652057 33.052922 " stroke="#4dbbff" stroke-width="2.118202" stroke-opacity="1" stroke-miterlimit="4"/><path stroke-linecap="butt" transform="matrix(0.749607, -0.0242767, 0.0242767, 0.749607, 133.801681, 189.578894)" fill="none" stroke-linejoin="miter" d="M 5.76364 49.998198 L 38.96848 50.000089 C 39.312388 50.000805 39.533235 49.77867 39.533951 49.434763 L 39.534529 44.911578 C 39.534738 44.583288 39.31311 44.346823 38.969203 44.346108 L 6.785672 44.346027 C 6.149914 44.346281 5.655275 43.850844 5.65502 43.215086 L 5.655887 28.545968 C 5.655632 27.91021 6.151069 27.415571 6.781622 27.415148 L 38.970358 27.415397 C 39.314265 27.416113 39.535618 27.178362 39.530623 26.849903 L 39.5312 22.326718 C 39.531916 21.982811 39.314987 21.762131 38.965874 21.761247 L 5.76624 21.759525 C 2.425907 21.760778 0.00229391 24.188809 -0.00149055 27.523767 L -0.000770546 44.235674 C 0.000650598 47.570801 2.428513 49.99962 5.76364 49.998198 Z M 5.76364 49.998198 " stroke="#4dbbff" stroke-width="2.118202" stroke-opacity="1" stroke-miterlimit="4"/><path stroke-linecap="butt" transform="matrix(0.75, 0.000000000000000023, -0.000000000000000023, 0.75, 172.726546, 188.400105)" fill="none" stroke-linejoin="miter" d="M 5.765647 49.99778 L 38.968775 49.99778 C 39.312525 49.99778 39.531275 49.77903 39.531275 49.43528 L 39.531275 44.909238 C 39.531275 44.581113 39.312525 44.346738 38.968775 44.346738 L 6.786481 44.346738 C 6.151064 44.346738 5.651064 43.851946 5.651064 43.216529 L 5.651064 38.706112 L 36.265649 38.706112 C 36.708358 38.706112 36.942733 38.471737 36.942733 38.143612 L 36.942733 33.61757 C 36.942733 33.289445 36.708358 33.05507 36.265649 33.05507 L 5.651064 33.05507 L 5.651064 28.544653 C 5.651064 27.909237 6.151064 27.414445 6.786481 27.414445 L 38.968775 27.414445 C 39.312525 27.414445 39.531275 27.18007 39.531275 26.846736 L 39.531275 22.325903 C 39.531275 21.982153 39.312525 21.758194 38.968775 21.758194 L 5.765647 21.758194 C 2.427106 21.758194 0.0000220565 24.185278 0.0000220565 27.52382 L 0.0000220565 44.237363 C 0.0000220565 47.570696 2.427106 49.99778 5.765647 49.99778 Z M 5.765647 49.99778 " stroke="#4dbbff" stroke-width="2.118202" stroke-opacity="1" stroke-miterlimit="4"/><path stroke-linecap="butt" transform="matrix(0.749607, 0.0242767, -0.0242767, 0.749607, 211.66915, 188.481888)" fill="none" stroke-linejoin="miter" d="M 5.7657 49.99914 L 38.965504 50.002623 C 39.314616 50.001739 39.531545 49.78106 39.53083 49.437153 L 39.535457 44.913799 C 39.535079 44.580303 39.313894 44.347758 38.969987 44.348473 L 6.786457 44.348554 C 6.150699 44.3483 5.655093 43.848455 5.655516 43.217902 L 5.654481 28.543579 C 5.654736 27.907821 6.149375 27.412384 6.785133 27.412638 L 38.968663 27.412557 C 39.31257 27.411842 39.534368 27.180583 39.533989 26.847087 L 39.533412 22.323902 C 39.532696 21.979995 39.311848 21.75786 38.967941 21.758576 L 5.763101 21.760466 C 2.427974 21.759045 0.000111343 24.187864 -0.0013098 27.522991 L -0.0020298 44.234898 C 0.00192325 47.575062 2.425368 49.997887 5.7657 49.99914 Z M 5.7657 49.99914 " stroke="#4dbbff" stroke-width="2.118202" stroke-opacity="1" stroke-miterlimit="4"/><path stroke-linecap="butt" transform="matrix(0.748428, 0.048528, -0.048528, 0.748428, 250.588728, 189.824152)" fill="none" stroke-linejoin="miter" d="M 0.566033 50.000534 L 5.08587 49.999748 C 5.419853 49.99897 5.650989 49.780431 5.654734 49.435717 L 5.653119 38.705001 L 33.894643 38.705788 L 33.891061 49.436841 C 33.892513 49.781218 34.115575 50.001622 34.459953 50.00017 L 38.969395 50.000057 C 39.313773 49.998605 39.534514 49.780741 39.533061 49.436363 L 39.532034 27.525932 C 39.534645 24.185429 37.106953 21.759302 33.771985 21.76155 L 5.765355 21.76119 C 2.424853 21.758579 -0.001275 24.186271 0.000973808 27.521239 L 0.00233875 49.436868 C -0.00140635 49.781583 0.221655 50.001987 0.566033 50.000534 Z M 5.651967 33.052606 L 5.651855 28.543163 C 5.652657 27.911579 6.147603 27.414972 6.784385 27.415437 L 32.760456 27.411757 C 33.381645 27.413234 33.894181 27.912366 33.893379 28.54395 L 33.893491 33.053393 Z M 5.651967 33.052606 " stroke="#4dbbff" stroke-width="2.118202" stroke-opacity="1" stroke-miterlimit="4"/><path stroke-linecap="butt" transform="matrix(0.746465, 0.0727284, -0.0727284, 0.746465, 289.444437, 192.425524)" fill="none" stroke-linejoin="miter" d="M 0.565822 49.998822 L 5.087039 49.99789 C 5.417153 50.002357 5.651967 49.780626 5.654919 49.43496 L 5.651123 38.707688 L 26.996302 38.705519 L 30.953941 49.999971 L 37.1605 50.002291 L 33.202861 38.707839 L 33.767761 38.70513 C 37.106331 38.704298 39.533765 36.2804 39.532932 32.941829 L 39.533759 27.525598 C 39.532927 24.187028 37.103845 21.760099 33.770458 21.760427 L 0.567198 21.761442 C 0.221533 21.758489 0.00227096 21.978706 -0.000681695 22.324371 L -0.00178638 49.436631 C 0.000444753 49.781791 0.220661 50.001053 0.565822 49.998822 Z M 5.655142 33.055661 L 5.654986 27.414507 L 32.762062 27.416117 C 33.384488 27.413036 33.893188 27.907705 33.892599 28.546188 L 33.891783 31.92155 C 33.894864 32.543976 33.384644 33.054191 32.761712 33.052087 Z M 5.655142 33.055661 " stroke="#4dbbff" stroke-width="2.118202" stroke-opacity="1" stroke-miterlimit="4"/></svg>